<?xml version="1.0" encoding="utf-8"?>
<svg viewBox="39.512 0 412.101 58" fill-rule="evenodd" stroke-linejoin="round" stroke-miterlimit="2" xmlns="http://www.w3.org/2000/svg">
  <g transform="matrix(1 0 0 1.000002 0 -206.482552)" fill="#1f1f1f">
    <path d="M93.948 238.812l-6.004-10.399H75.935l-6.004 10.399 6.004 10.4h12.009l6.004-10.4zm-21.17-26.333c-.705-.232-1.088-.992-.856-1.697s.992-1.088 1.697-.856c1.224.405 2.411 1.373 3.325 2.602a9.56 9.56 0 0 1 1.383 2.64c1.009-.359 2.176-.527 3.613-.527s2.603.168 3.612.527a9.56 9.56 0 0 1 1.383-2.64c.914-1.229 2.101-2.197 3.325-2.602.705-.232 1.464.151 1.697.856s-.152 1.465-.857 1.697c-.693.229-1.415.843-2.011 1.646-.546.735-.967 1.605-1.153 2.471l.068.061c1.424 1.286 2.52 3.144 4.057 5.804a1.2 1.2 0 0 1 .094.164l1.116 1.932h-.003l3.339 5.784.003-.001.161.279 1.273-.735c.128-.074.292-.03.366.098.027.046.039.098.036.147v5.612c0 .148-.12.267-.268.267-.052 0-.1-.015-.142-.04l-4.863-2.807a.27.27 0 0 1-.097-.367c.024-.042.058-.075.097-.098l1.275-.735-.16-.276c.004-.002-3.768-6.532-4.112-7.128h-16.47l-4.429 7.669-4.189 7.258a1.34 1.34 0 0 1-1.087.667l-.015.001-.008.001c-9.471.526-16.101-4.18-19.221-9.315-1.172-1.926-1.858-3.931-2.026-5.767-.181-1.969.226-3.766 1.256-5.127 1.466-1.936 4.081-2.921 7.909-2.178l15.82 3.067c.728.14 1.205.844 1.066 1.571s-.843 1.206-1.571 1.067l-15.82-3.069c-2.68-.519-4.4.024-5.261 1.16-.615.812-.85 1.96-.731 3.268.132 1.441.691 3.047 1.648 4.622 2.615 4.303 8.144 8.254 16.088 8.049l4.377-7.579 3.096-5.365 1.165-2.017c1.56-2.703 2.664-4.584 4.102-5.883l.068-.061c-.186-.866-.607-1.736-1.153-2.471-.596-.803-1.319-1.417-2.012-1.646m-6.981 29.083l4.85 2.799a.27.27 0 0 1 .097.368c-.024.041-.058.074-.097.097l-1.274.736.218.377c-.004.002 3.768 6.532 4.112 7.127h16.473l8.597-14.894c.032-.059.069-.116.109-.17l.004-.004.016-.021.021-.025.006-.007.015-.017.021-.024.008-.009.014-.015.032-.032.014-.013c.047-.044.097-.085.15-.122l.014-.01.027-.018.013-.007.015-.01.012-.007.016-.01.012-.006.016-.01.012-.006.017-.009.028-.014.03-.014.012-.006.017-.007a1.31 1.31 0 0 1 .363-.098l.01-.001.024-.003h.007l.026-.003h.007l.027-.002h.005l.029-.001h.068l.055.003c8.32.463 14.095-3.594 16.787-8.022.957-1.575 1.516-3.181 1.648-4.622.12-1.308-.116-2.456-.731-3.268-.861-1.137-2.581-1.679-5.261-1.16l-15.82 3.069c-.728.139-1.431-.338-1.571-1.067s.338-1.431 1.066-1.571l15.821-3.067c3.827-.743 6.442.243 7.908 2.178 1.03 1.361 1.437 3.158 1.256 5.127-.168 1.836-.855 3.841-2.026 5.767-3.031 4.988-9.373 9.571-18.413 9.347l-8.602 14.893c-.247.431-.698.672-1.161.672v.006h-5.232l-2.614 4.527a1.34 1.34 0 0 1-1.833.488c-.214-.124-.382-.297-.495-.499l-2.607-4.516h-5.232c-.544 0-1.012-.322-1.224-.787l-4.437-7.687-.003.002-.22-.382-1.274.736a.27.27 0 0 1-.366-.099c-.024-.042-.035-.088-.035-.134l-.002-5.624a.27.27 0 0 1 .425-.219m22.807-19.694c-.87-1.442-1.607-2.513-2.397-3.226-1.009-.912-2.248-1.312-4.267-1.312s-3.26.4-4.268 1.312c-.79.713-1.527 1.784-2.396 3.226h13.328z"/>
    <path d="M142.263 246.99a18.17 18.17 0 0 1-5.12-.736c-1.664-.448-3.008-1.088-4-1.856l1.76-3.904c.96.704 2.112 1.28 3.424 1.696s2.656.64 3.968.64c1.472 0 2.56-.224 3.264-.672.704-.416 1.056-.992 1.056-1.728 0-.544-.192-.992-.608-1.312-.416-.384-.96-.64-1.6-.864-.672-.224-1.536-.448-2.656-.704l-4.192-1.216a6.79 6.79 0 0 1-2.784-1.952c-.8-.896-1.184-2.08-1.184-3.584a6.26 6.26 0 0 1 1.056-3.552c.704-1.024 1.76-1.888 3.168-2.496 1.44-.608 3.168-.928 5.216-.928 1.44 0 2.816.16 4.192.512s2.56.832 3.584 1.472l-1.6 3.936c-2.08-1.184-4.128-1.76-6.208-1.76-1.44 0-2.528.224-3.232.704-.672.48-1.024 1.088-1.024 1.856s.416 1.344 1.216 1.696c.8.384 2.016.768 3.648 1.12l4.192 1.216c1.088.416 2.016 1.056 2.816 1.92.768.864 1.152 2.048 1.152 3.552a6.13 6.13 0 0 1-1.056 3.488c-.736 1.056-1.792 1.92-3.232 2.528s-3.168.928-5.216.928zm26.4 0c-2.272 0-4.352-.512-6.176-1.504-1.856-.992-3.296-2.368-4.352-4.128s-1.6-3.744-1.6-5.952.544-4.224 1.6-5.984 2.496-3.104 4.352-4.128c1.824-.992 3.904-1.472 6.208-1.472 1.952 0 3.712.352 5.28 1.024 1.536.672 2.88 1.664 3.936 2.944l-3.328 3.072c-1.504-1.76-3.392-2.624-5.632-2.624-1.376 0-2.624.288-3.712.896s-1.92 1.472-2.528 2.56-.928 2.336-.928 3.712.32 2.624.928 3.712 1.44 1.952 2.528 2.528c1.088.608 2.336.928 3.712.928 2.24 0 4.128-.896 5.632-2.656l3.328 3.072c-1.056 1.312-2.4 2.304-3.968 2.976s-3.328 1.024-5.28 1.024zm35.904-22.784v22.4h-5.184v-9.184h-10.176v9.184h-5.184v-22.4h5.184v8.832h10.176v-8.832h5.184zm22.208 22.4l-4.32-6.24h-4.768v6.24h-5.184v-22.4h9.696c1.984 0 3.712.32 5.184.992 1.44.672 2.56 1.6 3.36 2.816s1.184 2.656 1.184 4.32-.384 3.104-1.184 4.288c-.832 1.216-1.952 2.144-3.424 2.784l5.024 7.2h-5.568zm-.096-14.272c0-1.248-.416-2.24-1.216-2.912s-1.984-.992-3.552-.992h-4.224v7.808h4.224c1.568 0 2.752-.352 3.552-1.024s1.216-1.632 1.216-2.88zm22.816 14.656c-2.336 0-4.416-.512-6.272-1.504-1.888-.992-3.328-2.4-4.384-4.16s-1.6-3.712-1.6-5.92.544-4.192 1.6-5.952a10.91 10.91 0 0 1 4.384-4.128c1.856-.992 3.936-1.504 6.272-1.504s4.416.512 6.272 1.504 3.328 2.368 4.384 4.128 1.6 3.744 1.6 5.952-.544 4.16-1.6 5.92-2.528 3.168-4.384 4.16-3.936 1.504-6.272 1.504zm0-4.416c1.312 0 2.528-.32 3.584-.928 1.056-.576 1.92-1.44 2.528-2.528.576-1.088.896-2.336.896-3.712s-.32-2.624-.896-3.712a6.7 6.7 0 0 0-2.528-2.56c-1.056-.608-2.272-.896-3.584-.896s-2.528.288-3.584.896-1.888 1.472-2.496 2.56-.928 2.336-.928 3.712.32 2.624.928 3.712 1.44 1.952 2.496 2.528c1.056.608 2.272.928 3.584.928zm23.104-14.144h-7.168v-4.224h19.52v4.224h-7.168v18.176h-5.184V228.43zm22.72 0h-7.168v-4.224h19.52v4.224h-7.168v18.176h-5.184V228.43zm30.112 7.007c1.472.32 2.592.96 3.424 1.888.8.96 1.184 2.176 1.184 3.68 0 1.92-.704 3.392-2.144 4.416-1.408 1.056-3.488 1.568-6.272 1.568h-10.304v-22.4h9.664c2.496 0 4.448.512 5.824 1.504s2.048 2.432 2.048 4.256c0 1.248-.288 2.272-.928 3.136-.576.864-1.44 1.536-2.496 1.952zm-11.744-8.896v8.128h7.136c1.824 0 3.2-.352 4.192-1.056.992-.672 1.472-1.696 1.472-3.008s-.48-2.336-1.472-3.04c-.992-.672-2.368-1.024-4.192-1.024h-7.136zm7.904 18.496c2.016 0 3.52-.352 4.544-1.024s1.536-1.76 1.536-3.2c0-2.784-2.016-4.192-6.08-4.192h-7.904v8.416h7.904zm16.48-20.448h2.368v22.4h-2.368zm28.128 20.352v2.048h-15.84v-22.4h15.36v2.048h-12.992v7.968h11.584v2.016h-11.584v8.32h13.472zm26.912-20.352v22.4h-1.952l-14.4-18.176v18.176h-2.368v-22.4h1.952l14.432 18.176v-18.176h2.336zm25.76 20.352v2.048h-15.84v-22.4h15.36v2.048h-12.992v7.968h11.584v2.016h-11.584v8.32h13.472zm26.912-20.352v22.4h-1.952l-14.4-18.176v18.176h-2.368v-22.4h1.952l14.432 18.176v-18.176h2.336z" fill-rule="nonzero"/>
  </g>
</svg>